/* XPM */
static char *result[] = {
/* columns rows colors chars-per-pixel */
"8 8 3 1 ",
"  c #000001",
". c #0C10E0",
"X c #0F14FF",
/* pixels */
"  .XX.  ",
" XXXXXX ",
".XXXXXX.",
"XXXXXXXX",
"XXXXXXXX",
".XXXXXX.",
" XXXXXX ",
"  .XX.  "
};
