/* XPM */
static char *_aab1a0455884e0bb549060e6273834b5JHdtSit8z8nkpIE[] = {
/* columns rows colors chars-per-pixel */
"64 64 229 2 ",
"   c #05041B",
".  c #08061D",
"X  c #060B1D",
"o  c #090C1E",
"O  c #06131F",
"+  c #0B101F",
"@  c #0A0D20",
"#  c #071421",
"$  c #0B1422",
"%  c #0C1B25",
"&  c #091D24",
"*  c #111524",
"=  c #121C26",
"-  c #141E28",
";  c #191E2A",
":  c #072726",
">  c #0C2226",
",  c #0E2429",
"<  c #0D2A2A",
"1  c #102227",
"2  c #13232A",
"3  c #1A242C",
"4  c #142B2D",
"5  c #19292E",
"6  c #0C362E",
"7  c #13332E",
"8  c #1A342F",
"9  c #1D2330",
"0  c #162D31",
"q  c #1B2C31",
"w  c #0F3832",
"e  c #153432",
"r  c #1C3434",
"t  c #153B34",
"y  c #1B3A35",
"u  c #1E3738",
"i  c #173E39",
"p  c #1D3C39",
"a  c #22262F",
"s  c #242630",
"d  c #242C32",
"f  c #2C2D35",
"g  c #233335",
"h  c #283335",
"j  c #213A37",
"k  c #243639",
"l  c #2B3539",
"z  c #233C3A",
"x  c #2A3C3C",
"c  c #32343B",
"v  c #343C3E",
"b  c #3B393F",
"n  c #0D4837",
"m  c #134236",
"M  c #1A4236",
"N  c #16433A",
"B  c #1D433C",
"V  c #16493C",
"C  c #1B4A3D",
"Z  c #18543D",
"A  c #23433D",
"S  c #2A423E",
"D  c #224A3E",
"F  c #29493F",
"G  c #333F40",
"H  c #393E42",
"J  c #1E4640",
"K  c #1D4D42",
"L  c #1D5344",
"P  c #195B48",
"I  c #254541",
"U  c #2B4542",
"Y  c #244C43",
"T  c #2B4B44",
"R  c #2D4D48",
"E  c #344544",
"W  c #3C4346",
"Q  c #334A45",
"!  c #344C49",
"~  c #3B4C4B",
"^  c #245345",
"/  c #2B5246",
"(  c #235A46",
")  c #285946",
"_  c #255549",
"`  c #2C544A",
"'  c #245B4B",
"]  c #2B5B4C",
"[  c #315046",
"{  c #33544C",
"}  c #3A534E",
"|  c #325A4E",
" . c #395A4F",
".. c #255F50",
"X. c #2E5D51",
"o. c #3C5551",
"O. c #345D52",
"+. c #395953",
"@. c #3B5C53",
"#. c #24614D",
"$. c #2B624E",
"%. c #2C694F",
"&. c #256452",
"*. c #2D6353",
"=. c #2C6B55",
"-. c #2E6458",
";. c #2E6C5A",
":. c #346354",
">. c #3A6356",
",. c #336A56",
"<. c #396B57",
"1. c #346659",
"2. c #3C6559",
"3. c #346B5A",
"4. c #3C6B5C",
"5. c #2D725C",
"6. c #34725D",
"7. c #3C715E",
"8. c #3C6D60",
"9. c #2F7D65",
"0. c #357462",
"q. c #3D7563",
"w. c #337A63",
"e. c #3C7B65",
"r. c #367D69",
"t. c #3D7D6A",
"y. c #45454A",
"u. c #44484B",
"i. c #44514F",
"p. c #494F51",
"a. c #445351",
"s. c #4B5252",
"d. c #435C56",
"f. c #4C5A57",
"g. c #455E59",
"h. c #4B5C5A",
"j. c #55585A",
"k. c #416156",
"l. c #43645B",
"z. c #4B655E",
"x. c #426B5D",
"c. c #4A685F",
"v. c #52625D",
"b. c #5A615F",
"n. c #41735F",
"m. c #426660",
"M. c #496660",
"N. c #446D61",
"B. c #4B6B62",
"V. c #546662",
"C. c #536B65",
"Z. c #5A6865",
"A. c #5E6D6A",
"S. c #447364",
"D. c #4B7365",
"F. c #427A65",
"G. c #4A7A66",
"H. c #457668",
"J. c #4C7569",
"K. c #457C6A",
"L. c #4B7B6C",
"P. c #527367",
"I. c #52746A",
"U. c #5B746D",
"Y. c #537A6D",
"T. c #597A6E",
"R. c #4A7F70",
"E. c #547E71",
"W. c #5C7D73",
"Q. c #656969",
"!. c #63726C",
"~. c #697572",
"^. c #637C74",
"/. c #727E7C",
"(. c #3D836C",
"). c #348A6C",
"_. c #3B896D",
"`. c #3C8872",
"'. c #44826D",
"]. c #4B826D",
"[. c #43896F",
"{. c #53836F",
"}. c #458671",
"|. c #4D8472",
" X c #458B73",
".X c #4B8B74",
"XX c #498D78",
"oX c #548373",
"OX c #5B8375",
"+X c #538B76",
"@X c #5D8479",
"#X c #558C7A",
"$X c #5B8C7B",
"%X c #499277",
"&X c #4D997E",
"*X c #53937C",
"=X c #54957C",
"-X c #628479",
";X c #6C867E",
":X c #618B7C",
">X c #72867E",
",X c #62927F",
"<X c #807F80",
"1X c #5B8F81",
"2X c #4E9982",
"3X c #5B9381",
"4X c #539B82",
"5X c #599984",
"6X c #5B9B85",
"7X c #608D80",
"8X c #6B8C83",
"9X c #758880",
"0X c #629382",
"qX c #679987",
"wX c #6B9D8C",
"eX c #769489",
"rX c #4FA084",
"tX c #59A286",
"yX c #56A48A",
"uX c #5CA48A",
"iX c #61A48D",
"pX c #6BA28E",
"aX c #6AA391",
"sX c #64AB93",
"dX c #6AAA96",
"fX c #78AA9A",
"gX c #6DB69B",
"hX c #868686",
"jX c #86AEA1",
/* pixels */
"U 2 U I # X.| u O.z R k 2.{ k R.0.j 9 $ g.o.].3 ! #XI.@.3 @   { d.C x.d.2 @ i g o ! 3 z { ^ @ 9 m.y W.o.v T :.E z S.X.0 l = $ Y ",
"a.3 g.y $ e ' I y u k q O.d.q N.{ @ - ! d.f.a.* E B.g.z x = * h.! 4 e d.j @ u k 3 f.- z 8.3 @ @ z k P.U i.Y u } q k.! G G 2 $ X.",
"q 2 u i @ t ` u N - 3 r ` U % k.Y X . 3 T * S * k Q 2.5 g .   r z & Y k % @ 4 5 % 5 $ 1 I ,   @ q $ ! U d r O k 5 { y % 2 # @ ` ",
"4.2 8.u # :.$X@.m.z 0 U L.D.u 6XM.r 9 I I @.d d c.oX@.I.W.# j I.J.Q K.d.Y +.0X, 9 h.r I I.4.# * +.q 8.@.E ' r a.U $XH.y k G # +X",
"d.T 4.r # | X.I @.z % u m.| I 6.` & * x I } - @ { N.:.} ! 3 r x.{ A L d.p G L U 0 I g I 8.J * @ | 5 U.~ G 2.Q z q I.:.Y 5 G # i ",
"r # Y 2 @ , ^ r < r @ 5 x T # ^ i & X - 5 u @ * U r Q r d + $ / A A Y d 0 # 4 0 & q 3 & T & @ @ % $ Y 0 9 z 4 * 1 R p 0 - $ # J ",
"B.R F.Y % ..H.y N @.5 `  XB.Y !.K.0 3 z k k.g * } F.:.q.! > 0 Y.>.u I g.i I ;.@.I +.! T B.X.% - O.q Y.2.C.>.` r I Y.4.R E k # H.",
"@.1 0 y $ +.Y y < e @ I E [ z S _ , @ q q a.2 $ T C.c.z T 3 q ` I 4 R d.B & P B { r z r N.e @ @ 0 - !.} E Y 2.r r oXy q q U # X.",
"o.r r U $ 0 A T J U @ k ! { 1 z | 5 $ k U Q d 2 d.d.o.U ! % k } >.e _ { R , _ @.+.j U I O.I = @ u 9 ~ Q U e e g q >.A j k % - ~ ",
"R I { ` % 2.,.S J Y # ! k B.e k S.S $ U A @.= 2 ~ A ] X.! # z N.{ 2 2.J d y 4.) | I q r 2.` * - R 5 E 2.+.C < z g 2.| R E k % x.",
"l.0 H.,., O.:.4.5.O.0 ` c.@.y U S.k k u g N.{ = D.3.x.:.oXe e #X8.e B.3.A p 4X4.+.:.T R X.` * l Y q ~ { o.` T I T }.R +.@.I % +.",
"x q +.` $ T S R -.r q u k I - j ` 5 = y F <.% $ U y R O.U @ # ` T 2 @.a.r e I T 3 4 g R I N # * e - k I / O.y g j @.A A x g % Q ",
"2.j [ ] % L 0.X.C Y 0 e T I $ q { 5 q I u Y = # | r 2.1.Q < , @.` r R r r A 3.` r z r j l.< @ 2 # * G X.S >.T Q I D.] r I q $ *.",
"J.I R _ % 0.(.2.K.B.I ` >.{ / I G.g 5 l.l.l.k g B.H.4.|.+.y e  X].Y =.Y.` ^ O.$Xr B / 0 #X8.% k 4.q M.J.OXOXx.} R eXY / +.I < @X",
"[ 5 p N # y E 1 , % q u k U & 0 r % # 1 Q x # $ Q r ~ ~ z : X -.B 2 j y q r T k & B % & z y # 3 e 3 g k Q A t z 0 8.{ t 0 , # +.",
"U e R ` % X.9Xq D.u r A k T 4 T | - 3 Y { x.q , ` X.r } 2.= r +. .> / :.r 5 G.E r r r 4 1.0 # * ` - ! +.U { A T Y @.{ r A r 3  X",
"S.u L.R # O.B I 8.+._ ` q.{ ` O.4.% z ` z P.I q 4.5.Q K.4.Y Y N.2.I !.F.I Y E.k p +.R e #Xi # G ' q c.R | O.l.} @.;XS.O.j R # #X",
">.{ I z , ` X.3 C.K % O.z } I o.L.E o.T [ x.I I J.` k x.U I I =.M.5 % c.q i R U T p I 0 8.w 0 0 C.r g.} >.{ x Q A B.` < I e 0 I.",
"/ 0 , < @ e Y 4 z 4 , 5 1 U % $ G 2 # e , | g = B K ~ { x > e ( ) # $ R y 0 A 2 0 4 0 # ..y $ - O = S 5 @.& +.z B R 7 2 3 , X c.",
"O.| :.>., 0.3.r 8.g.O.p M.d.@.Y 2., G ..d.'.A u L.q.!.:.L.r e '._ G R |.O.N #Xk , X.4.z XXE.- ! G.j 2.k.2.@X6.{ 4.l.x.r @.X., $X",
"{ E e ' % Y X.i l.] +.r 8.{ Y U I.2 e Q d.x.I - @.] } x.| & J B.1.y r l.y K X.5 p [ 4.u L._ # 0 2.u +.! o.2 N r p o.t r { u , r.",
"T % e e X U *.j X.y $ 4 / A z , I # @ z A | 0 r z L 3 k ` e 7 d.Y 3 & ] , < 4.r 4 I Y 4 o., * # < 2 U z A 0 y q y o.4 4 y 2 & K.",
"2.r H._ , E.4.} Y.' { ] m.2.A R 4.3 | 1.c.L.y 0 J.`.R @.*X^ Y K.:.j k $XS -.aXB y -.X.` s.2.& G Y u L.l.@.L 3.2.1.l.1.` / { % -X",
"OXe ` z , _ _ , S.t ! ! I >.k.{ Z.0 j R { S., 3 4.2.T / O.i J :.] E , S.K K 4.z p ] ^ y g B.# r e r M.~ l.c.2.Y ` I.[ ` S z & j.",
"E.g x.O.e q.Y B 3.R 2.o.:.2.l.>.C 5 I / +.| r j m.{ ! N.>.z > :.{ r 5 d.I ^ _.] r } F.u 5 ! 0 u ] ` N.+.O.@.-.| T @XS.T n.:.% H ",
"B.e q.2.0 ^ / | H.3.B B 2.<.D x.l.I { >.A H.5 R }.S.Y ` 6X' J ~.[ J X.G.C L fX#.y 8.Y.z % :., z F.) D.<.3X+.;X/ :.oX3.` D.^ - % ",
"G.B  X:.y 5.F.^ 8X'.d.+.%XG.T.K.3.u p 8.L.4.O.| K.K.4.OX+X_ I *.oXX.B OX:.@.:X&.r S.B.` x ] r Y .XL.oX2.G.+XE.O.2.$XuX| |._ e k ",
"N.B ,.A & Y (.3.>.4.| B 7.| r { x.% p ` / 2.i e q.D | Y >.y & C =.B ' >.{ y T ] > 6.] y z { & - 4.X.M.` x.I { >.z @Xe.y :.C 2 p ",
"x.e e.:.4 F.6.^ B ` ^ T [.4.5 :. X< z ,.*.S._ R L.5.) / t.V ^ ) }.' Y 4.D } ;.2.Y -.6.Y x :.- I q.z o.:.0X#.^.:.^ $X+Xr 7.' r 2 ",
"-XI qX'.z +X|.] 3.r.4.] 0.oXY $X-X% X.w.F.+X2XY #XrX$.1.|._ +.2.sX' >.}.Y ` :.q.Y G.e.:.{ K.2 m.`.T @X4.OX>.Q.R.6.8X'.+.oXoXe % ",
"N.5 q.Y 4 ~ (.{ J T ` r *.n.4 y p % A *.` M.t ` ' 6.| A :.t T ] 4.1.A ] :.> ' :.> L ^ t A U # T 6.g B.Y D.Y 3 ^ y {.>.l ] ) y 2 ",
"Y.Y 6.>.0 ` S.2.1.$.q.K [.].B Y T 3 z q.,.:X_ / 7.K.,.! $XA D ] e.*.Y G.S.A ].>.y (.6.| R J.5 6.F.g { $.2.3.2 e.B |.G.x X.' 0 e ",
"#XK 2Xe.z 3XH.t H.0.@Xt K.@Xd.K.(.G }.(.4.+XS.:.}.1XY.l.0X| Q D.=X` S.7XL.&.#X4.k '.7.Q } ).y q.fXI m.F.z.B.t G.O.fXoX2 oX'.z r ",
"K.R #X-.u ' ;.` B q.:.4 I.>.k -.-., _ q.!.0.X.A S.0.N.I oXV ` 2.oXK J K.8.0 M.:.A -.N.T A L % R K.p 4.L.L.F 3 x.Y Y.v.1 ].1.& r ",
"1.T ;.K.4 V.F.R ^ ] S.z $.A I ' &.$ ) =.=.( C 0 @.| F.A 4.Z g d.:.Y 7 2.4.B N.] < O.^ q z >.& B q.4 } 3.{ ^ y 2.Y F.% > e.=.4 5 ",
"wX} 6X%X< 0.&X` O.K.^ :.S.S.*.(.*.0 e.|.-.XX`.H.6Xt.] >.iXk.L.Y gX_.K.XXK &.4XS.k.w.q.Y { e.e -.sX{ E.'.a.7.4 S.L.%XA z  Xe.& r ",
"8Xa.aX} e } q.^ ` 5.4.` F.4.` 0.t.5 4.+X` $X:.) 1.;.H.| &Xx.a.A w.^ L oX8.E K.].~ w.K D <.&.4 ^ 7XY I.$X~ T y | $.aX) y w.3.& j ",
"C.z.0XW % X.3.A ^ L n r ^ / G ' ] 4 X.:.+.k.K D / ` Y J c.C & 3 O.C / / N C o.#.& L T 7 ] +.& ^ 5.r 4.) R A 2 Y S |.$.3 O.1.t # ",
">.z.,XA 0 w.%X] R 4X3.q.%X].B. XF.4 e.*X~ -X*XO.D.^.1XF.tX4.>.Q uX*.O.iX|.q.'.*X/ 2X6.| >.(.e *.qXz Y. XJ.>.$.S.x.wX] e $X Xy 2 ",
":.- T < 7 N }.^ K 0.*.Y ].T +.^ 3.% K ;.z @.@.C 2.u |.} pX>.P r :.g F U.;.N L.n.I x.3.> ^ ' > y oXY 4.|.d.! M H.` iXB & 5.q.m < ",
"<.$ I t 4 #.K.Y i r.q./ #Xc.4 5.;.j J q.5 | X.V S./ U./ e.4.~ A x.5 } U.6.e *.q.U e.L.y @.X.4 d.K.I c.S.{ B & 6.R $X4 5 '.w.y B ",
"@.- L.t j {.5X, ;.>X@X` #XS.t *.*XT &.8X! 6Xe.Y 7.y o.x.wXt ! 4 e.& / C q.} '.^ T #X*.e 2.6.A w.eXB Y.oXF.$.,.#Xh.$X/ y uX$XM ^ ",
"D.* {.p , 8..XO.e.3.@.c.uXJ.} '.e.r S._./ -XiXL OXT J.2.fX3.' p yXq 4.k.4.R .XG.| 0X*Xx.` e.< 4.% Y B.=XB.:.> T.` r.A r uXoXD A ",
">.% O.7 1 ,.Z.$.) Y H E *X{ > :..Xr R S.U k.6.7 :.D | ` B.O.& e ;.# t x.` N K >.> 6.4.r [ =.y *., e n.%X{ T ] c.h.8.I ! |.L.Z & ",
"2.O ] D 4 1.:.X._ 2 f h |.) > 3.XXr q.4XS ~.] 6 q.5 >.8.2X-.A j ].1 A B ) _ (.8.A ).:.B ` =.M e.C z q.'.F :.y C.p.G.^ r aX XC , ",
"4.3 >./ N `.t.S.(.O.X 3 yXS.:.(.%Xe 3.&XO.d }.( t.p ].K.qX'.;.y 2X0 _ ,.|.*.t.|.' V..XC / .Xw (.% ] .X6X+XOXr x.4 wXD h.wX`.I Y ",
"4.O A :.j O.B Y ] { o % 6.2.> 4.+X& 7.|.A 5 P ^ @.T x.` .X{ > j D.% y c.,.i =.B.& { F.B x.:.8 #.7 ` J.5X| D l.Q 1 oX<.2 .X:Xp m ",
"Y.% :.#.7 x.%XS.Y./ . = *X4.M 3..Xt =.=XF l >.B C.{ O.@.uX{ l T -X$ A ,.=.Y *Xk.j O.S.2 :.,.r $.m } oXtX>.R n.<.2 $Xn.y +Xc.A :.",
") o {.) t (.e.3.'.[ o % sXG.l.0X_.O ].6X .g .XV F ) ,.L.qXx $ F 4.4 :.Y.q.1.XX] | B '.y ` e.e '.t &.5X*X2.&.Z n.= qX) r ,XJ.Q y ",
"n.3 Y ) Y C.2.( { m.o 2 w.x.z K.:XS e.Y.x l (.y d.M ' ` e.b o ,.| & Y :.&.J =.B y x.6.+.J.3.B V e.:.S.w.G.7 t A.0 wXB 2 q.z.S A ",
"G.# p D V #.' ,.' y   & :.) < %.Q y =.C.l 3 .X$.+.Z 4.] :.  X 2 Y.$ z ,.H.t 3.] Y A F.: x.,.e / *./ H.+XF.( A b > %XD % #.S M & ",
"K.g $X' Y |.*X,.|.Q.  5 '.`.:.%X-XY G.] Q S +X .] ' 8XG.sX  X A k.S e.4..X-.iX1.Y ^ /.i.Q.qXA 8X+.| $X*Xe.U.; 1 5 iXD.y tXQ.A A ",
" X> 2.$.7  .K.S Q.# . 5 eX4.Y 0.C.B >.:.j 5 L.5 a.L f.v.6X  O A :., ] 3.o.o.=XY ! m %.1 x -Xt 4.C 3.J.'.4.L   d 5 $X^ g qXo 5 7 ",
"f.$ P T y ! 7.l.j.o X * !.,.B K.E m L A d 3 x.$ 5 D 4.E +X  X [ v & < W *.i oXQ Q y.C % r ^ & +.> ` G.].q.5   * > -X=.1 2.X O 7 ",
"y.X +X< M >XF.^ % $ o 5 / e.Y ;X6.r oX@.S S 6.q W ,.F r sX  O >.5 > Y d :.3.dXX.) o | & k =XA W.& ~ >XsX$XD.  1 4 OX| < `.$ j d ",
"3   } k.& O.7.) e . o & ^ F.v.| 2.> c.{ W 3 z.3 d ,.B 4 '.  + o.x = c 5 :.` ].Y x   G.r - W.D 6.{ ( { .XB.z.  + 4 OXx.A x.X $ 7 ",
"d = :.c Y c.L a.x - . % l.3.h.,.:.5 c.<.g x j.5 d :.] 5 #X  O / g * a 5 :...1X` % . | 2 3 Y k ^ A +.T %Xd.E   = 2 OX:.A P.o & z ",
"s 3 I.  6 6 +.l o     > | ].{ >. ./ Q.:.g 1 . . 3 / | r sX  o D h $ + 3 %.P jXf.u.  $.& d s.8 %XA t R &X-Xk.  3 q b.F.% { . C 6 ",
"d - Q.  d j ) - .   . 3 ].&XQ.s.| j | n.l x o 5 f =.F.U rX  . y.; $ 5 c (.1.r.5 * + A = k   } oXM b s.dX~ z.  g = x F.j >.X A > ",
"- = d . s o S 5   .   & n.'.y 5 [ X y v 5 g o 1 d s.n.A ,X  @ c + 5 & 3 4.u G G o   3 X l   $ [ ` @ d +Xl c   * $ l F 5 v X h : ",
"a * O .   . j.3   o o 1 G.{.S * b.c Z 3 x 5   O a b 6.8 F.  o * ; O o 3 D.i.$.% o   X X 5   $ C.A @ d wXs.y.  3 $ d S 1 5 o s j ",
"d $ 3 . o   * 3   * . ; !.OXp.g 3 A 7 + E k . = g 1 Y.l hX  @ = 3 5 5 l J.# H U o o . 3 k   & <.y.$ W T.b o   5 5 s.j.5 f X   . ",
"a + %     o * +     o + 1 s.o + * X 8 * d d   o d * i.; s     = ; X X d j.  . 5     o o 3   o b.  o 3 j.f *   o O 8 = 5 ; .     ",
"f 3 5 .   + . o   * o * ; f X + 3 . y.$ j ! X . * 1 5 s c     * 1 = % 3 q   . h . . . @ 5   o <X  * c d 3 * . - = h d 8 -       "
};
