/* XPM */
static char *_447575f44364bb0abf320fd2d2251e0FxnqsLKhpe9dT5c3[] = {
/* columns rows colors chars-per-pixel */
"64 64 197 2 ",
"   c #030403",
".  c #060A06",
"X  c #080B07",
"o  c #070E09",
"O  c #0A0E09",
"+  c #071108",
"@  c #0B130C",
"#  c #0C1A0E",
"$  c #10130F",
"%  c #101B0F",
"&  c #0E1610",
"*  c #0D1C11",
"=  c #111611",
"-  c #121C14",
";  c #161E19",
":  c #1D1E1C",
">  c #0F2214",
",  c #0E2C17",
"<  c #122316",
"1  c #182217",
"2  c #112917",
"3  c #152419",
"4  c #1A251C",
"5  c #152A1B",
"6  c #1A2B1E",
"7  c #15331E",
"8  c #1A321F",
"9  c #20261F",
"0  c #1A2721",
"q  c #172E21",
"w  c #1C2D21",
"e  c #163420",
"r  c #1C3323",
"t  c #173C25",
"y  c #1D3A26",
"u  c #1E3628",
"i  c #1E3C29",
"p  c #212520",
"a  c #222C23",
"s  c #282C27",
"d  c #262E28",
"f  c #2A2D2A",
"g  c #213426",
"h  c #213A26",
"j  c #233529",
"k  c #2A332B",
"l  c #233C2B",
"z  c #2A3C2E",
"x  c #2C3D31",
"c  c #333533",
"v  c #323C34",
"b  c #383C38",
"n  c #1E422B",
"m  c #1E482C",
"M  c #24432D",
"N  c #29412F",
"B  c #23492E",
"V  c #264431",
"C  c #2A4432",
"Z  c #254B32",
"A  c #2B4B35",
"S  c #274F38",
"D  c #2C4E39",
"F  c #314335",
"G  c #384037",
"H  c #304C36",
"J  c #34453A",
"K  c #3B423C",
"L  c #334C3A",
"P  c #384A3C",
"I  c #255234",
"U  c #2B5236",
"Y  c #2A5B36",
"T  c #275539",
"R  c #2D543A",
"E  c #23593A",
"W  c #2D5A3C",
"Q  c #32543D",
"!  c #39553F",
"~  c #325B3E",
"^  c #385C3F",
"/  c #2C623D",
"(  c #31623F",
")  c #3E4641",
"_  c #3D4C42",
"`  c #2F5B41",
"'  c #345540",
"]  c #355642",
"[  c #3B5443",
"{  c #3A5644",
"}  c #365A42",
"|  c #345C42",
" . c #355D43",
".. c #3A5B44",
"X. c #3C5E49",
"o. c #2E6342",
"O. c #2F6B45",
"+. c #2F6D4B",
"@. c #346344",
"#. c #356345",
"$. c #396346",
"%. c #336A45",
"&. c #396947",
"*. c #366549",
"=. c #3B654A",
"-. c #3D664C",
";. c #366B4A",
":. c #3B6B4C",
">. c #347147",
",. c #35724C",
"<. c #3C724E",
"1. c #367A4F",
"2. c #3D7A4E",
"3. c #3E6D51",
"4. c #377350",
"5. c #3D7452",
"6. c #3D7A53",
"7. c #3F7F59",
"8. c #444A44",
"9. c #494947",
"0. c #4A4E49",
"q. c #415445",
"w. c #42554A",
"e. c #445D4B",
"r. c #4F5550",
"t. c #4C5D51",
"y. c #525652",
"u. c #525F55",
"i. c #5A5C59",
"p. c #41644D",
"a. c #406A4E",
"s. c #40724F",
"d. c #436550",
"f. c #4C6353",
"g. c #426D52",
"h. c #4A6C56",
"j. c #476D58",
"k. c #4D6F59",
"l. c #516458",
"z. c #5D645F",
"x. c #536C5C",
"c. c #5C6B5F",
"v. c #437454",
"b. c #487556",
"n. c #427B56",
"m. c #457559",
"M. c #4B745B",
"N. c #447C5A",
"B. c #4B7B5D",
"V. c #53735D",
"C. c #5D6E60",
"Z. c #4D7A60",
"A. c #547360",
"S. c #5D7564",
"D. c #517C62",
"F. c #5A7D67",
"G. c #5F7D68",
"H. c #636C63",
"J. c #69716B",
"K. c #637B6A",
"L. c #687D6F",
"P. c #6F7D73",
"I. c #747A75",
"U. c #3D8256",
"Y. c #3E8259",
"T. c #418256",
"R. c #45825B",
"E. c #4A825E",
"W. c #43895C",
"Q. c #4D8462",
"!. c #468C64",
"~. c #4A8C64",
"^. c #508665",
"/. c #5A8367",
"(. c #518C66",
"). c #558769",
"_. c #58866A",
"`. c #538C6A",
"'. c #5B8C6E",
"]. c #479362",
"[. c #4B9265",
"{. c #4E936B",
"}. c #4C996C",
"|. c #53946C",
" X c #52996D",
".X c #5B9371",
"XX c #549B71",
"oX c #5A9B75",
"OX c #5D9D79",
"+X c #65866F",
"@X c #69806F",
"#X c #678A73",
"$X c #52A270",
"%X c #59A375",
"&X c #62A37E",
"*X c #5DAB80",
"=X c #64A382",
/* pixels */
"C 1 l j + W } 6 R z 6 4 g.A w b. .r - @ P J :.* P n.' $.4 O X ' P r *._ < X Z w . x 4 g | S & - C r Z.[ x A D z u -.A r a & @ R ",
"z < l r @ y Z y r g 3 3 #.H 3 #.A @ @ 6 H C w.& x ' V r j O O j A 1 j C u   M 6 & g - q } 1 O . r 5 -.V F l l C 0 H r r j - @ M ",
"C r h V # Z ~ r Z 3 3 r } Q 3  .A @ @ w { 4 K - z A ' C k + O l V 1 M z 5 o h 6 < z ; < Z r @ X r * ' C j j u l w p.g < 0 1 @ D ",
"} 6 R C + Q E.Z D r ; l :.! h XXQ p ; r C ' 4 - { v.R $.{ @ 4 $. .l 2.{ q j -.* * J 6 r =.C o @ A ; Z.X.l Q C x l _.} y j 0 * 5.",
"D V R r @ V A r Z h - r ^ Q 6 &.V - & q l C - O P :.S H C - q @.H r E A r r T 6 3 l w l *.n - O l 4 k.L j A l r r M.T V 3 w @ M ",
"C > R 3 @ V R M z l @ g A Q < $.n r - 4 g j * 4 H V A l z & 3 R Q N S x 6 6 r g < r w q L q O O 1 ; X.x x V l 4 r e.Z i 4 0 & S ",
"Q V $.V # ' :.t A Z 3 V N.^ l t.o.g : r w P 0 & _ 5.R &.Q 3 w $.} q A X.y Z ;.V t C l u :.` 3 & A * g.| { ' Z 0 r B.Q C z j * $.",
"Q e V l * V R l u u @ h _ Q r g ' 3 & 5 a L ; * H h.| Z C 3 0 R C r R Q y 5 / y M r l r *.i & @ r ; f.A x R A w r B.h V 0 w * R ",
"C r y y @ h l M l l @ w P H < r A w @ w l N ; - P [ Z x z @ 3 A ~ 6 R U y 5 V A S 6 g r ` i & O j 1 8.h x r M w 6 } y l 6 ; @ l ",
"H r H } - U :.8 D S - h j { h w ;.V : r h -.6 4 Q R R $.H 3 w @. .5 $.W q l X.R U l j y =.C & ; C < P ..S R L N M p.H H H g * p.",
"X.6  .@.< A $.~ ;.W 3 Z A Q l h $.l 3 y j Q r - ' #. .` X.y u ;.W 5 $.| 5 i :.<.R M l h { Z @ 1 V 1 x D C D V j y m.C Q H r & Q ",
"A 6 Z M @ r M R T r 3 r h C < w I r & w N Q - @ l i D R l - @ ` A > V P 5 6 y U 5 y r N R V * @ 0 * g l l ~ l g y } M l j ; * M ",
"' h } @.>  .4.~ R T 6 N l H < 6 C a w M C -.3 - Q N $.*. .r 4 #.~ l Q H r M :.:.j l h r -.l * 0 i 1 x 5.C R R ' Q b.R S H u 1 ;.",
"=.r C R > *.N.T ;.Q r M R N Z l $.l 0 | Q ..j 3 X.' e.n.L y u N.:.Z :.:.B D $.b.h S l y R.' * 0 S 3 L j.X.#.} l R B.C V F V > 5.",
"L y C M # M q.6 y w g N l P 4 h Z w - u L Q 3 # P N l ~ C 4 # ' Q 5 Z V r l A N - l 6 2 A g @ 4 j 0 F L ' ' r z l a.C V j w - | ",
"A r M V - D K.6 Q B 1 h M C y h L * - l H X.5 < ! @.8 ! #.- w  .~ < Q :.6 h 5.v 4 M h 4 %.g * - S > J e.C Q Z M Z g.A r y r < Y.",
"X.l -.C * ' h h :.V l A } } S M -.< j D V d.l 6 :.<.l R.$.l l -.$.j l.B.y ' g.w u A l r Q.D > a D w p.C Q $.X.C R S.! W g z < v.",
"~ V V u * | M * D S * Z l V r N } r q y M L r g ! B 6 ! M 8 r *.R - - X.5 g Z 6 r Z r w O.i w < C < C M V A l V x Q S 5 l y * } ",
"T h V n * V Z 6 A y 4 l j L h 6 N r 6 V g =.l < A ~ A :.Q l l &. .; 1 -.y V R j r A l 3 5.l * - r 1 P z [ r  .H Q ! Z y y a * *.",
"D H W ' 3 :.$.q g.C A h C H Z C } 6 w } [ R.l 6 m.5...-.g.l r n.R q j B.T C N.z w W R e n.' & 0 ' 5 X.Q R =.X.l T ' ..r ' A > E.",
"A F l W * V T 5 *.M l l ~ U V h ~ 5 0 C Q Q y 1 } U J e.A < r Q | 2 5 e.i U T 6 q y M 5 m.` & q T 5 D x H u C r M [ e y D w # %.",
"L < ` V @ l @.l  .V # r R M l g C @ 3 u N  .r h U U 6 C ~ r i Z Q r 1 / 6 r ` 6 r r m y #.y * 0 M 6 Q F A h V h V [ B V C w & 6.",
" .l 3. .5  .| H <.( M R Q :.Q M ~ 6 z ` p.v.M 0 h.].g U n.U Z N.#.5 j `.h W [.l h *.` Z y.} 3 w A r 3. .' R :.*.;.-.} R Q M * n.",
"#.3 D V > ' W 3 ..Z M V Z  .Z l Q j l h Q :.r 3 =.&.l U $.r u @.~ M 6 b.y T $.g y B I r a ` * r A r { P Q #. .Z U ..Z A V u < i.",
"g.r ~ Z 5 T Z Z #.A Z C ~ ~ B @.S 6 q M L :.h j ..R l ' -.j * $.A r 6 X.h I 6.@.5 M <.y 4 n 3 w S R g.T } } #.R M D.$.Z @.A # b ",
"v.V :.;.7 %.Q A <.*.Z R &.s.T &.@.x C W Z N.C C Q.5.R ~ {. .M J.g.M R M.A W &X<.i :.M.A < ~ u l ;. .m.$.Q.W B.' ~ Q.<.R m.^ 5 3 ",
"-.M 2.W 8 ;.%.C Z.<.V W s.v.U <.o.C l  .p.$.A M :./ S $.v.U 7 o.:.B r g.S Q b.@.5  .Q V g  .5 V :.-.n.*.;.v.g.T @.N.W.U v.' 5 5 ",
":.y *.A 5 A %.U ' @.Z B ( $.8 &.| > u W ~ @.M r :.R R S $.l 8 Y *.B B -.U u R ~ y W Z M l C > 3 A Q g.[ :.A  .' M /.<.h :.M 5 r ",
"v.i 6.~ 5 3.;.Y A R I I W.:.8 s.7.i Z ;.&.m.' T B.N.~ @.m./ ~ M R.R I M.B Q *.N.V :.4.U C #.3 l <.P -.#.Q.,.b.:. ._.W.7 <.W 8 8 ",
"g.r (.6.y N.<.R W ,.~ W 2.n.U s.h.w D %.<.N.6.B m.].U  .n.I D ( [.U R N.n R @. .y &.&.W l 4.3 A n.j M.$.b.-.C.3.<.E.n.Q v.<.r 3 ",
":.8 <.R 5 Z <.H R Z Q M %.<.M N A 3 l R U a.Z M *.U.#.U :.M n ~ :.W M :./ 7 ~ ( 5 R R l Z C # h ,.j p.@.:.A j o.Z Q.a.v #./ r 5 ",
"^.M 6.W 5 *.<.A Q &.#.Z U.T.I h S - x ;.<.5.R S :.n.*.! Q.Z M R n.W I B.( M <.~ r U.%.U U $.5 T 5.g -.~ =.:.4 <.l |.m.v @.@.h r ",
"R.Z ^.;.e `.:.i 5.6.3.n N.M.R $.4.h 3.6.*.`.| U Q.(.' :.(.A N Q R.B :..X*.;.:. .r <.#.C M ~.t  .XXi 3.5.-.V.3 =.' OXB.< B.Y.h r ",
"*.M Y.} 5 } #.H M >.R r 5...V W Q < Z @.f.,.I n *.o.*.M a.M S Q n.Z l :.W 7  .W r A R M V Z & u *.r  .$.a.l 6 } n v.f.* g.W < w ",
"n.V 5.n.e M.v.Q W W ..y a. .T #.| 5 R <.( %.R y g. .%.R <.B A e.n.B M :.| Z :.Y y T ~ h M #.3 M N.5 X.<.e.S 3 $.I ~.< * N.*.u r ",
"'.T |.7., 5.[.B ~ <.T :.5.v.~ W.@.r :.<.W |.1.@.Q.n.Q g. XY :.h |.*.;.|.I ;.E.| A n.O.M U B., %. XV M.5.[ R 6 3.<.~.h j R.6.5 r ",
"A.P (.[ 4 T %.l A <.` T v.*.R ~ $.4 S ;.W v.~ B :.;.| W 7.W T 8 6.R U E.R S :.%.Z 6.S S R $.r n 6.y g.m.l J q Z Z .Xn r ;.*.* r ",
"A.Q |.K > #.4.U R >.R C :.Q M ;.@.r Q &.} p.W S :.| o.' n.R 5 6 :.V o.$.I T Q %.5 ;.R l @.*.* I 5.C h.@.U A y &.Q .XW 4 $.,.i e ",
"' D `.w > ;.~.U R }.o.5.].g.;.5.$.r *.n.l B.6.U  .C.6.,.$X;.R 0 (.~ Z |.<.M.1.U.C !.&. .T U.y R [.y M.~.~  .B :.#.&Xn q N.7.e e ",
"$.4 d.w 5 R <.B M ,.&.#.<.A D ` ;.4 Z &.r X.@.S -.l M.Q XX#.I r *.L A L.@.y %.<.e v.W r U W 2 Z m.M :.n.Q N l ;.T OXM > :.<.u w ",
"o.@ H g 5 R %.M V 5.' R R.$.r %.@.r l :.7 Q ~ y :.M -.R 6.B V r :.q D x.o.t R R y ,.@.y A W < A 4.C g.:.A V i ;.R '.h - 5.%.y e ",
"[ = s.r 7 *.~.y *.L.=.' [.n.R <.T.C W B.M %X6.B N.U Q &.oXR W r Q.> }  .W R :.;.S ].%.B ! @.7 %.@XM M.n.:.W Z N.D M.V 6 oX7., M ",
";.# $.t < #.6.S 4.W e.g.XX3.R 6.,.l ' 6.A <.U.y v.h ' #..X+.~ 6 !.6 R ~ Q M ,.,.Z Y.U.W S &.3 W j D a.R.{ T 6 :.R 7.M 5 XXn.y r ",
"-.@ Q y < C e.B R V 0 l ~.X.6 W 2.u U v.B ~ %.B :.B Q R b.~ r g ,.# h $.R l I | 5 6.#.h R O.r T @ w  .Q.Q R Z d.[ B.Z h E.*.i r ",
"b.@ *.B < 2.g.@.#.u f 0.`.;.5 &.Y.h n.{.Q I.@.Z v.r X.&.XX3.V h m.5 H C W R 7.N.n !.@.M W / n Y.y y :.|.T #.l K.C.Q.V h oX6.M l ",
"#.# Q Z t 6.%.#.4.V   - [.*.W v.Y.V | |.Q 4 n.B 5.l &.;.Q.;.o.r ~.r R ~ ;.W :.n.T x.1.Q A U.7 1.5 Z Z.~.%.} l ~ < _.U z .X!.l M ",
"#.@ V I 5 Q T C R C . # 2.#.7 @.6.r  .N.M 6 =.B f.V $.#.Q.Q 5 M V.* M :.%.~ #.&.5 X.>.M / Q 5 O.0 T N.`.#.Q A Q 3 D.W 6 6.n.y A ",
"B.# #.I 5 =.W.( 3.A X # T.| S 2.6.< W (.U a $.U x.S ` } |.{ c M h.# Z @. .Z W.X.y D ( r @. .< / u R `.%X} A C o.3 `.R 6 R.p.Z / ",
" .@ a.Z 7 ,.:.*.n.C + @ $X2.} n.~.* n.}.~ a T.U M R %.N.|.q.@ h %.w #.v.<.*.R.-.I M 7.M  .5.e 6.i o.{.(.#. .R :.1 {.^ 6 (.*.A L ",
":.; Q Z i :.| T I Q X > v.^ r >.h.g @.p.8 a 2.B Q U B Q 3.c O V [ @ M =.U D #.M y ! / ~ :.#.h Z I ` b.Q.#.y l e.6 `.C 5 :.R l g ",
"Q.- } C Z %.@.~ $.Z   * 6.:.M ;.L l ;.S.P 5 [.U ! ;.&.:.v.  O M <.- C N.v. .5.@.D R v.V 5.&.l R T ` N.|.<.W } K 6 XXQ 1 v.V M r ",
"n.6 v.~ M ].R.W n.i.  < Q.6.| R.-.l <.~ z k R.R W W n.&.XX  . C Q l ;.v.5.T {. .h D S.q.f.N.u 5.x ` `.^.,.&.K $ > oX&.h }.i.z l ",
"Q.* } ~ r Q #.l u.@ . < G.&.S 7. .u *.Y j 4 g.a H ( Q t.R.  o M $.> V 6.I R 1.l V Q Y < g Q.7 &.V ' M.4.&.B   ; 5 #XU r `.O 3 w ",
"q.@ ( C t R 6.} r.@   * K.:.S n.H 5 W l g 6 *.# r C -.q.Q.  + i G 3 i 8.o.T 6.A V f V > h ^ 5 R w ` N.n.$.V   - < /./ 6 5.o > M ",
"v O R.N e g.n.S ; O   < Y N.Q +X .y T.H 8 s m.3 j Y A l OX  O A 4 5 Q 6 / %. X:.Q . R > j ~.M v.x _ I.*X6.:.  * 5 D.A < W.@ g w ",
"4   R Q # l.@.U w X O * R n.R Q $.g &.Q N 9 f.1 j &.N h Y.  @ C j @ b 9 W W 6.M V . &.5 3 A.M :.x C T R.g.~   @ < B.Q h h.O = C ",
"6 - Q K N q.U C j $ . # ~ <.Z ( A w  .Y j j i.6 a ^ W g R.  @ } 8 % s 9 @.| n.V @ . ~ < 1 U y R z S Z !.[ S   $ 2 F.Y j /.X > y ",
"a : B.  7 M  .v =   . # R E.W =.W P c.W N 1 . X 6 $.W A *X  @ V a @ + 4 %.;.OXz.c . R * 9 9.x U.H D Q %XS.p.  4 9 H.2.5 ! X n t ",
"9 @ y.. 4 r W % .   . # %.~.W b Z z H $.g a . < 9 :.@.B !.  X x < @ % s O.@.@.3 $ @ F = g   l 2.D s 8.=Xz $.  1 - 8 &.z [ X r l ",
"= % f . p = z 4   .   = ( m.V 1 P O l P 6 g X - s P <.U `.  X 4 $ 1 # 4 6.N A g X . k O k   1 ! P X 9 ).z v   $ @ j L 1 v O x j ",
"a $ $ .   X y.4   X X < :.R.M - i.v U 9 F 4   @ a k -.l `.  O @ 1 # X 9 X.0.5.< X   . O g   @ g.C $ s |.0.y.. 4 < d C 2 4 X s k ",
"4 X - .   . O @   O   % u.S.8.< ; a r @ h 9   @ 9 @  .l J.  X $ - - = a Q 3 0.g O . . = w   @ =.) . k A.f X   = 1 b P 4 - o   . ",
"6 @ 1     X @ =   . X @ 3 0.@ + % ; z % h d . @ 9 - 8.4 f     = 1 + @ a )   4 a . . O O w   . b   O a u.s =   @ @ r = 6 4 X     ",
"9 $ 1 .   O . X   O . @ = a . o 4 = c @ l j   . - 1 4 4 f     @ 1 * * 6 3     a .   . O w   . i.  & s 4 < $ . = % g ; 4 =       "
};
