/* XPM */
static char *b2aabd5b16f74bbdf30c2727c575df4b8A14CEiF5eukc32o[] = {
/* columns rows colors chars-per-pixel */
"64 64 256 2 ",
"   c #0E1E05",
".  c #0F1D0A",
"X  c #121D06",
"o  c #1B1C06",
"O  c #121D0B",
"+  c #1B1D0C",
"@  c #0B1F19",
"#  c #151C13",
"$  c #1B1D14",
"%  c #181918",
"&  c #1C1C1B",
"*  c #241E0B",
"=  c #231E13",
"-  c #281C19",
";  c #0D2305",
":  c #062805",
">  c #0D2C05",
",  c #0D240A",
"<  c #0D2B0A",
"1  c #132306",
"2  c #1B2405",
"3  c #132C05",
"4  c #1B2B06",
"5  c #14240A",
"6  c #1B240C",
"7  c #142B0B",
"8  c #1B2C0B",
"9  c #073606",
"0  c #0D3304",
"q  c #0C3B04",
"w  c #0D330B",
"e  c #0E3A0B",
"r  c #133405",
"t  c #1B3404",
"y  c #143B05",
"u  c #1B3B05",
"i  c #14330B",
"p  c #1B330C",
"a  c #143B0B",
"s  c #1B3B0B",
"d  c #0E2512",
"f  c #0A2616",
"g  c #0E2A12",
"h  c #142413",
"j  c #1B2413",
"k  c #142B13",
"l  c #1B2B12",
"z  c #15241A",
"x  c #1B241B",
"c  c #152B1B",
"v  c #1B2B1A",
"b  c #0D3213",
"n  c #0F351A",
"m  c #143313",
"M  c #1A3414",
"N  c #133B13",
"B  c #1B3B12",
"V  c #14341A",
"C  c #1B331B",
"Z  c #1C3C1B",
"A  c #262A07",
"S  c #23230C",
"D  c #232C0C",
"F  c #23330B",
"G  c #223D0C",
"H  c #283908",
"J  c #232413",
"K  c #242C14",
"L  c #23251B",
"P  c #292919",
"I  c #35281A",
"U  c #233412",
"Y  c #223C12",
"T  c #25341C",
"R  c #283918",
"E  c #323611",
"W  c #1A1D23",
"Q  c #301C2B",
"!  c #1C2624",
"~  c #0C3A29",
"^  c #1A3526",
"/  c #242724",
"(  c #273825",
")  c #303027",
"_  c #0D4608",
"`  c #134405",
"'  c #1D4306",
"]  c #144B04",
"[  c #1E4C04",
"{  c #14430B",
"}  c #1B440C",
"|  c #144B0B",
" . c #1C4C0C",
".. c #0C5809",
"X. c #165505",
"o. c #1C5C06",
"O. c #14540C",
"+. c #1C520C",
"@. c #135C0C",
"#. c #1A5B0D",
"$. c #0C4713",
"%. c #154312",
"&. c #1C4313",
"*. c #154C13",
"=. c #1B4C14",
"-. c #1C421A",
";. c #18491A",
":. c #0C5616",
">. c #1B5413",
",. c #155C14",
"<. c #1C5B14",
"1. c #145518",
"2. c #1D541A",
"3. c #1B5B1B",
"4. c #22440C",
"5. c #254909",
"6. c #255709",
"7. c #245A0C",
"8. c #224314",
"9. c #244C13",
"0. c #23431B",
"q. c #294818",
"w. c #354D11",
"e. c #235313",
"r. c #23531C",
"t. c #285918",
"y. c #325B1C",
"u. c #0C6B07",
"i. c #176807",
"p. c #14630C",
"a. c #1A630D",
"s. c #146C0B",
"d. c #0E770A",
"f. c #17760C",
"g. c #0D6616",
"h. c #166717",
"j. c #1B6412",
"k. c #1C6C14",
"l. c #1C631A",
"z. c #0E7A15",
"x. c #147412",
"c. c #1C7314",
"v. c #147C14",
"b. c #1B7C14",
"n. c #18741A",
"m. c #1C7A1B",
"M. c #25630B",
"N. c #246B0B",
"B. c #26750B",
"V. c #34700D",
"C. c #236412",
"Z. c #276A18",
"A. c #267717",
"S. c #22741B",
"D. c #367A1A",
"F. c #184924",
"G. c #145723",
"H. c #264625",
"J. c #36472A",
"K. c #265824",
"L. c #345B25",
"P. c #314A32",
"I. c #3B5C35",
"U. c #1A6924",
"Y. c #0D7328",
"T. c #187624",
"R. c #396826",
"E. c #336D2D",
"W. c #267925",
"Q. c #475632",
"!. c #496E37",
"~. c #467538",
"^. c #496B42",
"/. c #53654F",
"(. c #4C7847",
"). c #557B49",
"_. c #657B56",
"`. c #0C8708",
"'. c #15870A",
"]. c #0B9A09",
"[. c #13940B",
"{. c #149C0B",
"}. c #199809",
"|. c #0E8913",
" X c #148513",
".X c #1B8412",
"XX c #1B8C13",
"oX c #188819",
"OX c #0A9615",
"+X c #1C9413",
"@X c #1C9C13",
"#X c #179718",
"$X c #23870D",
"%X c #27940E",
"&X c #258617",
"*X c #249717",
"=X c #339015",
"-X c #0CA806",
";X c #18A80B",
":X c #0DB809",
">X c #16B70B",
",X c #0BA617",
"<X c #1CA413",
"1X c #17A917",
"2X c #0BB615",
"3X c #1CB313",
"4X c #16B917",
"5X c #25A60C",
"6X c #23A213",
"7X c #24A918",
"8X c #27B617",
"9X c #31B510",
"0X c #188D24",
"qX c #258A22",
"wX c #378F26",
"eX c #2A9722",
"rX c #18AD26",
"tX c #27A625",
"yX c #35AC25",
"uX c #25B424",
"iX c #2EAE38",
"pX c #498434",
"aX c #4B9234",
"sX c #649838",
"dX c #56AA26",
"fX c #52AD39",
"gX c #0AC60A",
"hX c #16C70A",
"jX c #0DD507",
"kX c #18C816",
"lX c #14D111",
"zX c #17DD17",
"xX c #2ACB0C",
"cX c #26C816",
"vX c #2FC822",
"bX c #6AC238",
"nX c #4B8540",
"mX c #59884C",
"MX c #579348",
"NX c #5A8756",
"BX c #689357",
"VX c #55AB42",
"CX c #68A755",
"ZX c #6DB351",
"AX c #6D9961",
"SX c #719666",
"DX c #78A768",
"FX c #77AE6E",
"GX c #6BC750",
"HX c #7AC76D",
"JX c #87AE5B",
"KX c #8BB672",
"LX c #89CE5A",
"PX c #8AC86E",
"IX c #98CC8E",
"UX c #A5E592",
/* pixels */
"ZX^.% d # 4 7.OX0.2 ; 7 5 r M.[.X.k 7X1XF J 6 h 5 S 5 > : . X @ & Y jX4XD.C S v c 5 b `.O.a m &XlXr.5 5   5 8 rX&X0X0.t.p.u AXZX",
"NXP.> k h S N #.( 5 < m , 7 u | r z W.z.:.6 K R K $ # 5 # .   O 2 s c.T.T v W.B.r.< 6 8 k 7 g J.#XP 5 .   O J k.;.|.=.N.M.B ^.H ",
"K L c DX8.l 8 C.m 5 7 k 7 5 ) q.H.j P P 2 @.-X:Xo.S 0 3 + . ; + ; 6 C U L G k.4Xy.S k Y T l S M v m 5       , S ! ! G ;X>XF r F.",
"[...X.KXsX{ `.@Xf.8 ;     4 &X#X2.T ,.e.N x.yX*Xq.C %.<.p 5 9 2 f 8 x.b.M.c.2XkXZ.l J ].*XR 8 `.A.&X5 O X X - - ,.S I %X,XP f.uX",
"Q.R _.~.AXQ.M.+XoXj 5 5 5 m qXtXW.B cX3X .D.7X%Xn.Y 9X8X' Y KXNXH.Y gXcXv.v.`..XB K K >XkXy.*.2X>X}.7 O O   Q  X#X0X8 H.;.K N.pX",
"].%.i V e < P e.9.6 5 5 5 5 , h.2 s ;X3X$.( R ( K s OX#X} ).PXPX!.a 2X3XW.R.*.2 5 z 8 Z.A.4.I ].5X&X5 O     Q .XqXoX-.9.=.m K.].",
"Z 8 H.,X7.k k ' v 5 1 5 5 X k 6 2 C T Z i g.;X;Xi.x M l $ J.DXDXI.8 Z -.R R h + + O < U Z m J { q.m h       W g.Z.Z.T *X2X( b ( ",
"R.a .XkX3X( _ {.R i > > 3 6 j 8 c 3.XX.X<.q.kXuXj.A s 7 , H.q.T J.k ( ( M L O + X 6 Z -X}.^ 5 ;.q.U +   5   O 5 W h v }.+Xq.@.wX",
"1X&.&X7X:Xh.s `.4.r 9.).r r s $Xm &X6X[.A.m.7X:Xt.>.8Xw.< J &.{ m } hX5X3.+.C O # ! L.iX4XH.0.2X+X<X5 5 5 O 5 s 3.X.z D.#XK f.8X",
"+Xr.r.8.#.s 8 %.i K.ZXGXMXr 3 A p %X6X7X'.9.q.o.B i.zX>XB y.uX9Xs.2.kXkXy.,.N # O 6 9.2X>X( R yXyXwXD r I.i < H.g.d.^ C.e.D &XyX",
"I l 4.A.Z.8 p i 8 ~.aXbXMXi 3 3 k a.s.0Xh.7.A.s.9. .+XB.p 7.cXvXq.U 0XoXh.,.y o 2 2 f i i i U ].0Xp.H.DXPXAX7 H.,.Z.p N.C.~ / T ",
"x.{ T.7X4X{ =.+XpXaXVXR.} i 5 r 8 i q.R U f.9XkXM.F y t ! l.$XD.k.6 ^ c Z B Y ).P.S k ( T T x M T P R CXPXBX5 8 7 ;.4 %X#XN  .'.",
"qX*.S.kXkX .2.@XaXMXpX8.M r 3 8 r 8.rXv.Y |.xXxXi.8 h k $ F E s l m f.s.D H.CXPXNX8 w.+X#X=.N  X*X,.8 q ~.0 5 O o 1 + [.+X} >.7X",
" .a Y V.Z.i r 8.~.A.fX3X'.R a U } X.6X*X5.J.oXo.t.h 5 = Q R .XW.p } *X&X-.e.CXJXI.( R.yXyXK.R 3XlX&Xx ! k / @ $ ; 2 h eXh.;.U }.",
"b k E  .w.t r p Y q.<XjXN.5.5.e.e.b.*X8XA.e t 7 > 5 1 5 k v.1XyX*.&.*XqX>.E./.K.^.l f.-X-XT.{ OXiX&Xl c.A.Z.1   X 1 m a.X.b 7 ~ ",
"i w i.>X:X5.| N.C.@X>X8X<Xy.E.aX~.M.N.M._ M > 3 1 2 5 1 1 4.7XoXZ.w | $.p.,.M J h J N %.) ' + P Y.2.N ;X>X[.7 X X 1 7 p.j.p 2 t ",
"b.^ 9.kX;X8.*.XXoXh.j.p.e.V.ZXUXCXW.C.2.s 7 3 3 3 5 5 j 5 m p.&.;.4 K / k x 1.D.V ! 3.<X6XF.6 %.;.i ( {.8XeX! X X 5 O `.k.{ J XX",
"oX8 q.N.B.t t H &Xf.c.#. .R.FXUXfX!.eXO.N r 7 7 3 5 2 + 3 J  .} r U OX X^ F ,X&X>.c k.4X7XS.m 1XrX0X^ I.b.( L 1   5 $ `.m.a T }.",
"r l r R I p 0 Z s e.v.1Xo.y.MXZXaXZ.&Xi.{ q y a 9 7 o 5 8 X.;X;X@.Y gX>Xq.w.1X7Xy.v l.W.<XoXF hX3X<X! / L x d O . O 7 M.6.8 v r ",
"8 P r.,X{.u &.+.>.s.W.%X6.r.B.D.S.7.N.C.` E.ZXZXQ.0 5 8 J s tXXXp i s.p.9.l B 3.A j 0.B *.%.7  X.Xc.h z < #   . O . < @.[ 9 J 3 ",
"_ a  XxXkX5.+.N.[.1X#XV.+.e.hXxX8X[ ] ` ` j.GXbXe.m l p 8 q.`.z.F.2 x = -. .l l j 5 p t.e.' z 8 S x 7 c.<X*., O X ; 5 9.2.S b #.",
"s.0 2.1X{.{ M { B.A.@X*X*.w.jXzXhXa { ' r ~.GXHXE.B u.u.t l &.B 2 1 + , 3 L p.>.l h  .>X-Xs j 4 t m k '.:XX.1 O   O h `.@.l q [.",
" .8 K U P r v ^ 7.L. Xv.M U [.1X$XB ` a 8 N $.' N X.8X5XY {  XA.s h 1 2 J H *X[.) K 4.4X#X( k x.#X6.T 1.Z.$.L O   1 j k.x.A k q.",
"& < N @X Xr i 0 O. .O.4.y p ` X.{ q s y N 3.wX[.R ' *X.X{ T OX*X0.; . 5 B ;.'.*XL.j M &Xv.i 2 v.{.<.7 j T 7 # O . 1 3 } $.l < 8 ",
"t 4 w.xX;Xr u ` l.'.c.p.` q o.B.o.i s B a XXvXjX5.U  .u w ` &Xd.8 O 5 5 } 1.} @.F.x p 4.' M j 8 C S x l.#X8.z O     5 8 w 5 < { ",
"l.a Z 9X<Xi w a ' s.p.a.H ` OXkX`.r p 8 M C.9X>XN.B O.} C %.0.o.5 5 2 ; a B F 2 J 6 _ oXn.%.o = j l / -XwX.Xh O X . 5 &.%.> =.B.",
"O.8 / Z.H.3 5 5 1 &.| s a t X.B.+.8 S > h 9.+.X.B Y -X6X' C i.p.r 3 1 1 2 A y @.i 8 F 2XXXR 8 =...| L 1XyXS.h 5 O 5 h 3.y 2 Y | ",
"L S L 3.F.h $ 2 6 8 p 4 a r Y 5.s < j 5 8 j 8 l J  .gX8Xq.a b.k.u 3 7 5 5 D f.#XU C T OX%X^ k k.d. .2 ` =.r h 5 8 , <  .u h j 8 ",
"4 7 G 4X[.0 * 6 3 8.0 r 3 l i.B.' 6 8 i 5 6 5 3 3 U A.4.r >.'.oX$.4 5 5 i 7 b. X} i t j.6.N 7 3.j.&.5 8 A 7 7 NXFXBXp 4 t 6 6 r ",
"3.7  .uXb.> 5 6 O.*.{ i 7 r M.kXG.a ).(.w 5 5 , 5 8 ` F.w -.{.N.>.3 7 3 4 > m F i 7 { B.K._ 8 1 0 k 3 g.|.{ i y.HXMXr B N > 9 @.",
"*.z ! <.K.k r b.s B > 3 5 7 $X}.$X!.ZXpX(.2 5 $ k a [.&XR Y .XoX3.4 > > 3 l i k 2 b ` <X&X| 5 7 3 z 8  X4X>.3 AXMXAX8 | a 4 4  .",
"7 j v ` D l #XgXc.8 6 h 6 l H.H >.!.bXbXI.3 5 1 8 H :X5X_ ;.'.V.] t 3 0 4 t _ O.M K 6.W.L.B 2 B e 8 j %.*Xv l M &.M j u...3 6 > ",
"5 x s `.C.%.eX9Xt.V 8 P l J F *.i 8 B a A > 5 X 2 Y }.'.a U '.W.i i r 0 7 q a.x.| l B  X XT 3 { { i 5 &.4.b $ - I / c 8 8 O # 1 ",
"a h U #XZ.N p.{.j.G.C.%XU.r s.%Xp.r 6.9.k 5 o 5 3 D b.] 8 D -XoXy u s u B r X.>.a m G i.7.N 1 y a 3 2 i ` v 6 OX[.'.j , ; ; , ` ",
"%.5 +.`.d.N $ 2 m 1.].lXOXT <.qX+./ 3X#XE 1 2 1 3 F #.i. .C u.7.'  .e.q.9.s y 9 7 N ' &Xi.} 8 1 ; 1 0  .oXa A Y.m.k.& < i ; 5 a ",
"1 h J l x O % # + p {.4X$XC i +.r u <XeXu 2 S , 6 X.<X1XO.R |.Z.7.~.KXmXE.5.t 0 7 i ..+X&XO.1 5 5 5 2 e.|.i L e.oXx.3 > s 5 5 1 ",
"o - w l.0.7 h # X ! 1.x.p x i s r 7 T } F g 5 5 5 k.-X8Xx.E '.XXt.nXIXIX!.q.H i 7 i ;.qXb.5.1 1 + 1 1 t.4.S z 5 $ & z r p 5 O 1 ",
"< 5 p.*Xn.s k 5 p Z K S z $ M $X| k 1.O.w 6 2 2 2 | 0X#Xs p $XB.t.MXIXIXpXR.s 8 3 4 7.'.B.p.5 + X 5 f 7 F e & + x $ & X 5 . ; 7 ",
"q o w S.n.i I.mX).=.R &Xx l M [.{ 0.@XoX@.S h > 6 p ] X.B s v.f.6.Q.E.nXDXFXNXr 7 8 { N.7.s 5 1 5 5 2 5.+.F S >.x.1.A > , O O 7 ",
"h # 5 c l 7 DXDXDXl J.wXD 8 8.o.g u $X3X{ J N F p y f.s.4.` d.o.5.7.D.aXFXKXSX3 3 3 O.c.m.B 5 5 X 1 s $XOXa.6 <.T.3.J 7 < . 5 5 ",
"O : 7 p m l DXZXDXV B }.c.v D 8 8 n U.8.B %.a.i.] u a.#.{ t ..=.5..XlXlX&X).Z 3 3 8 { S.n.} 5 X 1 5 B l.&XV h y.h.7.* 7 : 5 . . ",
"; # e oXd.y ^.NXNXw X.B.p.r N l.%.7 F M L ` 8X9X] s .XB.r q j.Z.&.n.vXvXS.F r k 3 3 =.b.p.{ 5 , ; ; F W.c.1.* O O O O X O . . . ",
"  . b Z.X.4 %.U.| y &.h...n p. Xs.U A.d.&.t f.{.y D a | 7 a a.j.9.h.1X;Xl.C.s > 7 8 y a.X.M 5 5 + O h u  .8 z O O O O O . . . . ",
"X , , 3 l N 1X3XtXK V qXU./ 5.&.<.N m.S.U k l M w r 2.#.B D ..@.a A H q.yXuXm.j k 6 r _ y 6 1 7 8 5 h F :.8 , . . O . . .   . . ",
"5 5 5 5 p M Z.cX'.R q.2Xb.! 8 h 8 0.b.A.| 4 ' &.8 u f.B.i 0 ] B C &.b.wX*X2X XK 3 2 a #. .7 m mXmXNXh [ u.5., . . . . O . O X 5 ",
"3.D t %.0.l `.m.! C t.eX1XK g w D J U A h K %X`.H p x.x.3 3 y i t C.rX9XoXf.a.! J 2 r #.X.i i HXZXAXK G.K.Z 5 . . . O O . @ I M.",
"kXj.B ..G 6 d j m i Y S...p s l.p m Z.s.m F -Xu.t 4 W.Z.7 2 a q D =.1X=Xq.x j 5 5 > a a.1.N i (.AXSXA h.c.9.X O . # 5 k , # k.3X",
"6XR ! i D W ^ }.( j N 8.| l 6 ..3 ' $X`.s l o.s 6 4 a { 7 7 y a v s s 5.' i 5 , 5 l 2 y t * h /.P.P.4 q _ 3 + . . . 7 { Y F f.4X",
"9.8 4 2 h l { #X-.h #.].{ = = 7 6 M B..XB z k 3 5 3 ` _ 7 5 i i > 6 T C Z..Xi , o 6 5 r 3 & ! r.e.H.h + 4 5 O . O O 3 JXPX&.m D.",
"p.i C B :.D { H.4.n W.*Xl.8 + j < ; P K x k >.} 3 i a.X.w 7 > h l G <.' XXqXp $ d 1 h a r V T 1X;X*X5 > &.; O . O ; 0 DXKXi  .7.",
"'.` Z O...8 X.$Xr.m &.t.&.3 r { 7 7 _ a l 8 |.5.7 8 @.*.5 2 1 o = <.Z.C. .P H.F.k 5 < N a g ( 4X8X&Xk } ,.8 . . O O O 8 p l O.:X",
"[.{ 7 ] ` = x.gXS.T y X.5.k r ' 3 r <.p.a m ,.5.e B  .=.7 5 O X 9 >.l.g.0.-.FXHX^.5 ; i r r x 7.&Xf.8 O.g.N O . O O   W h v  .hX",
"[.B h z W h f.qXS.j H OXA g , > 5 i e.p.B 7 l p k < p r 3   + 5 $ $ 8 j -.!.JXLXpX5 ; 5 5 = J r ) l # > 3 , # . O O p &X{.G ,.@X",
"U Q 5 _ w 6 A B D x ; G 3 $   , # 8 7 9 l + s n $ 5 s r > 5 j 6 + . < j 1X=XS.MXV + ,   , # P j.,.F.d 2 1 + . O . ; a 5X3Xq.c N ",
"A.i N -.} w *.v.G.x m L / 5 > 1 h 1 h 6 z 3 i.>.2 3 | %.7 7 ^.^.3 8 r i @XaXR.e J X , , 5 j U &XgXt.7 i $.3 ; O . ; N 7X8Xc.d.*X",
"<X4.7 %.a 2 ] $X5.R A.A.{ l 7 i 7 1 O.| 1 > +.` 7 > `  .1 y KXKX;.i } { Z.E.Y ~ D 1   7 , 3 8 OXgXl.7 ;.y i ; , + X 2 U &.C b.gX",
",XU.6 + > + t v.F e.Z..X .7 5 , 5 7 p.s.3 h a 0 h k i u 4 G KXKX4.8 > < v ) :XhXN.5 O ;   , S 5.4.a 7 N &.7 5 . # + 8 a.@./ e.}.",
"t j O 5 6 j k 0 c h &.0.8 h X O X 5 7 w 6 5 > < 5 5 > ; O D ^.^.> O , + >.S.*XdXm.5 5     + h 0 c 5 + X X 1 - O.....%.>X2XU.c V ",
"T.S ; 9 8 < { 6.` J 7 = o X X X O 5 2 ; O h e < . 5 p i 5 8 D v 5 #   O D.wXXXrX9.5 O X O O i t.s.a 1 o 5 5 K -X4X@Xe.>X3X>.E B.",
"*Xa h 3 r j ` ].=.k 5 5 o + X o : 5 > > 1 ; 3 i > < 7 r - &.rX#XZ.k % O e.#X! Q J   + O ; # r <.:X9.7 a a > e 1XkXtXM.@XOXS.o.*X",
";Xq 1 5 X 5 7 W.8 5 *.+.e o :   + 1 a Z 5 ; 7 k ; < 7 w 7 v.cXlXqXz , O 1.w.3.L.2.$ :   j 2 4 5.%XE p s a k j W.+X].I T V ! ,.2X",
"| l X   O + r p k h >.g.r + + + f , 3 7 5 5 7 5 5 ; 5 J 6 <.1X4XoX- - $ d 1.{.*X[.& 1 P / k j 8 s P   7 7 5 ; J v / 3 {.[.0 v G ",
"8.J +   X h 5.C.| j < ; , j p ..g d ; . . 5 5 O O O 5 d 5 x M R k 7 { V L <.6X=X@X7 p.>X;Xp.K | $Xl ;     . % 2.x.K.C rX4X&.C L.",
"aXL.:   6 h #.;Xl.r O O O w oX4XH 5 < , O . . O O h 5 5 X # / - * m ;X@XZ. X&X XA.k K 3X7Xe.u XXxXe.1 O O 5 l 4XkX-X-.6X8X<.~.sX"
};
