/* XPM */
static char *_a1dbc9d1b0541079aa978df3935540byzJBd1PpZehsfSev[] = {
/* columns rows colors chars-per-pixel */
"64 64 256 2 ",
"   c #080707",
".  c #160808",
"X  c #0A170B",
"o  c #16170B",
"O  c #0B0A15",
"+  c #1B0C14",
"@  c #160B19",
"#  c #0B1915",
"$  c #141414",
"%  c #141B15",
"&  c #1B1D14",
"*  c #18161A",
"=  c #240B15",
"-  c #2B1114",
";  c #261918",
":  c #0C290B",
">  c #15270D",
",  c #0D370D",
"<  c #19380C",
"1  c #0D2818",
"2  c #142313",
"3  c #1B2414",
"4  c #142C14",
"5  c #1B2B15",
"6  c #13241B",
"7  c #1B231C",
"8  c #142B1B",
"9  c #1C2C1B",
"0  c #0D3819",
"q  c #133715",
"w  c #1C3415",
"e  c #1C3C14",
"r  c #14341B",
"t  c #1B341C",
"y  c #143B1B",
"u  c #1B3B1C",
"i  c #24370D",
"p  c #2D2D16",
"a  c #252819",
"s  c #273819",
"d  c #243C1C",
"f  c #1A0A26",
"g  c #0E132B",
"h  c #191825",
"j  c #241925",
"k  c #331828",
"l  c #261A35",
"z  c #0E2622",
"x  c #172727",
"c  c #1C2323",
"v  c #132D23",
"b  c #1C2C24",
"n  c #0E3425",
"m  c #153523",
"M  c #1B3523",
"N  c #1B3C24",
"B  c #163828",
"V  c #1C3C2C",
"C  c #192A35",
"Z  c #0E3334",
"A  c #1B3834",
"S  c #242C23",
"D  c #262927",
"F  c #233322",
"G  c #233C24",
"H  c #2A3C22",
"J  c #283628",
"K  c #233C2C",
"L  c #343728",
"P  c #272936",
"I  c #342D32",
"U  c #273A36",
"Y  c #423F2C",
"T  c #0D4C0C",
"R  c #15490E",
"E  c #0B580B",
"W  c #18570A",
"Q  c #0B4818",
"!  c #154414",
"~  c #1B4214",
"^  c #124C12",
"/  c #1B4B14",
"(  c #14431C",
")  c #1C441B",
"_  c #144C1B",
"`  c #1C4C1A",
"'  c #0C5818",
"]  c #135315",
"[  c #1B5414",
"{  c #145B13",
"}  c #1A5A14",
"|  c #13531C",
" . c #1B541C",
".. c #145B1C",
"X. c #1B5B1B",
"o. c #2D4F15",
"O. c #23431C",
"+. c #2A4719",
"@. c #224B1D",
"#. c #265916",
"$. c #22541C",
"%. c #235C1C",
"&. c #096A0A",
"*. c #16650C",
"=. c #09770B",
"-. c #16760D",
";. c #0B6817",
":. c #146415",
">. c #1C6715",
",. c #136B14",
"<. c #14631B",
"1. c #1C641B",
"2. c #146B1B",
"3. c #1C6C1B",
"4. c #0B7617",
"5. c #127415",
"6. c #197815",
"7. c #13741A",
"8. c #1B741C",
"9. c #147B1C",
"0. c #1B7B1B",
"q. c #286D12",
"w. c #256519",
"e. c #236C1C",
"r. c #24771A",
"t. c #0C4827",
"y. c #154323",
"u. c #1C4424",
"i. c #134B24",
"p. c #1C4C24",
"a. c #18432C",
"s. c #144C2B",
"d. c #1C4B2B",
"f. c #0C5926",
"g. c #145423",
"h. c #1C5423",
"j. c #135C23",
"k. c #1C5B24",
"l. c #1C542B",
"z. c #14582B",
"x. c #1C5C2B",
"c. c #0E4D33",
"v. c #174835",
"b. c #1C4B33",
"n. c #175736",
"m. c #1C5433",
"M. c #1B5A34",
"N. c #234324",
"B. c #234B24",
"V. c #23432B",
"C. c #234C2B",
"Z. c #2C4928",
"A. c #374728",
"S. c #235323",
"D. c #2B5626",
"F. c #235D24",
"G. c #24542C",
"H. c #245D2B",
"J. c #2A5D2C",
"K. c #335629",
"L. c #264936",
"P. c #334835",
"I. c #245433",
"U. c #235C33",
"Y. c #2B5D33",
"T. c #29543A",
"R. c #235B3A",
"E. c #355738",
"W. c #0D6726",
"Q. c #146423",
"!. c #1C6323",
"~. c #146C23",
"^. c #1B6C23",
"/. c #18662B",
"(. c #1C6B2B",
"). c #0D7726",
"_. c #147223",
"`. c #1C7424",
"'. c #157B23",
"]. c #1B7B23",
"[. c #14772B",
"{. c #1B742B",
"}. c #1C7C2B",
"|. c #0E6B38",
" X c #196736",
".X c #1C6C33",
"XX c #1A7736",
"oX c #226324",
"OX c #236C23",
"+X c #2A6927",
"@X c #24652C",
"#X c #2B632B",
"$X c #236C2C",
"%X c #346628",
"&X c #227423",
"*X c #23742C",
"=X c #287928",
"-X c #33782A",
";X c #246334",
":X c #236B33",
">X c #296838",
",X c #366737",
"<X c #2B7B35",
"1X c #257738",
"2X c #347739",
"3X c #434B2A",
"4X c #43742B",
"5X c #263945",
"6X c #1D5743",
"7X c #1A504F",
"8X c #284A44",
"9X c #285843",
"0X c #35554A",
"qX c #1D6945",
"wX c #1B7743",
"eX c #286845",
"rX c #366A46",
"tX c #267846",
"yX c #2E7052",
"uX c #3B6960",
"iX c #43654D",
"pX c #0A860B",
"aX c #14860B",
"sX c #0E920B",
"dX c #13930A",
"fX c #0A8816",
"gX c #178817",
"hX c #14831B",
"jX c #0B9616",
"kX c #159518",
"lX c #248819",
"zX c #259C1F",
"xX c #16A318",
"cX c #0D8827",
"vX c #0C8F2C",
"bX c #1C8324",
"nX c #178926",
"mX c #1B832B",
"MX c #1C8B2D",
"NX c #189528",
"BX c #198637",
"VX c #199534",
"CX c #248628",
"ZX c #348D2F",
"AX c #26952A",
"SX c #278738",
"DX c #358538",
"FX c #279637",
"GX c #16A32D",
"HX c #2CA32E",
"JX c #1B8645",
"KX c #278845",
"LX c #29924B",
"PX c #2DA343",
"IX c #258C60",
"UX c #569E54",
/* pixels */
"MXc ; u.s.h OXgXd.S.<.K J NXm.@ * S.1 = BXr 1 9.9.L.y 1 A C 4.8Xf : y k.nXbX/ { b.NX~.h &Xd.+ >.2.- -.y.&.:.V 6 O t.Z.B u.bX$ & ",
"R._ ( 4.r.V h.S ;XZ.NXtXm 3.7.3 , NXC.; @X3 0XC.Q x.h.u.B : b oXg pX@Xv.M 7.BX6 ] >XS.^ 1Xz.( mX#X^ c 3.=.0.,XfXf 7XAXw.p.n./ t ",
"/ gXc tXCX8.M &XMXv.T mXl.w.zXe.h V.BXR =.;.5XvX( KX8 H.wXd.NX X@ >.g.,.q -XFXZ D W.3.4.1X1 % s.q ).nXXXh _.KX6.} 9 oX#XNXpXF.2 ",
"' &.' R.&XVX8 -._.d E 2X} '..Xu.w / CX@.VXT.S *.y r K.kXL.t '.<Xm 1.MX0.R A z./ ,XvXD * r &.  *Xw.W x.X.1.<X#X#XhXy.>Xr.$X0X&Xd.",
"p.7 gX1XZXc.N.r.cX8X5.7Xj U #Xw.v FX0Xj Z.$XyXU 4.T._ <X[.t `.bX!.lX0XN A.,.5.^ L.!.3.a PX/.X ;X~.@XXXIX=Xr.rXgX) s VX$.8XVXsXs.",
"XX5 O.N. .CXf.5.b.G.$XhXa kXBXr O 8 <XC.NX/.L.fXXXJ./ -.MX;.FXT.h f -.SXgX0XG.x w }.<.h cX_.N.j.;.bXcXm.Z.[.SX2 { Q.M 0.~.^.i.V.",
" X' p &XgX(. Xy.&Xb.kXnXk r.qXd. .DX/.S BXj.M .Xh.-.Q kXa.h +.PXr ,.[.rXe.aX` [ +.6Xv.& .X+X^. X..a b 9.=X+XtXE.k.I.XXL.B.F.~.v.",
"5.gXa 1XbXH.P.BXVXG s ~.X.s MX~.u AX1Xs 9.NXY.!.cXNXz z.VXT.kXDXR %.r h.q.VXmXpXl |.3.a MXV.: L.D ).gX*XV N.hXnXm 5 L.+.1XNXO.@ ",
"BX6.H l.lXMXf.9.>X9Xf.'.F.4.eXp.< ).CXd.AXP.v /.1.9Xe.kX|.w mXtX3 g.gX1XgXp.9 L.FXLX;.f k.5.H _.k.3X{.%Xr.aX<XM r.(.[.6.O.&X_.6 ",
"T./.].8XnXU.Y.,X0.M ..9XA #X~.f g <XwXM >X$XyXn.%XlXL.=X>Xr ,X*Xd.xXG.7XK.SXSXV :X8X^.;.AX9.V.vXe.k I.jX2X!.2X=.u.) OX} Q.h.XXw ",
"*XY.^ z.P r.B 4.Y.D 5 ;.f z.MXl $ u -X..NX;.E.6.!.B.t.hXAX*.nX&Xh 6.^.tXjXQ.[.A ) *XW ) vXW 0 d ~.1XxXv.' W.tX,XF.I ! O.mXS.6 # ",
">XD.' P.CX:XV.Z.CXo.lX[.. e.' . ' }.hXM BX{ v.J.Q e h [.` m F.LX7 6.GXSX5.:XL.pXm.uX:.f !.$.' BXQ q n ;.9.W.qX].aX0XXX+.{.!.' t ",
"#.&.).h.5...: 7.SXU %X1./ ; '.% ^ >X2.d.e.].m.9X:.*.* F AX9XnXZX] &.w.| [.FXjXpXP I.0.t NXY.N 6.d a.SX[.$Xk.DXNXi.3 ^ A.3.0XE X ",
"FX-.+.w H.}.M.[.J.J.6.CX<.mXrXs < b `.bXFXs.Z mXZXl G cX@Xb z.tX> v /.*XaX0XF T.mXFX!.a %Xw.t W 2.$.F.L.>X=XBXf.).w.|.1X{ D 1 o ",
"T.I ,.bX-Xg.|.D.`.r hX>Xd ] M.) 4.N.& 2 K w.,X1X&X=.s r.<XJ B.1.9 lXHXH ; >X].!.6.T.<.6.BXgX@.SXJXD +X).D.].<Xg.,.>XkXM.L.Z.' X ",
"-X.XW.0X<XJ.5 fX(.* X $X&.H.<Xe.% t t.) nXH.5 I.4.5.S ..SXe.NXB.. s XX.XdX+XBX*.P.9..X' ZX@.F  .).4Xr.OXj.:.[.w ( 8 q {.AXfXa X ",
"XXX.+.( hXSX0 M {.u./.z.) e.l.3 } jX( w MX} A.k.< l.7.BXm.B ,XVXT Q ].iX).F.B h.VXBX! 8 h.`  X9.V 1.v.] (.w.>X .;.5X-.h.9XU.!.S ",
"D.;.|.I.pXO.y e  Xb &.m ; 7 '.$ i.-.F.4 D }.Y.;X| j.9 OXLXm.O.CXT ] u.V [ {.nXu m Z 8.J.FXk.@. X| - fX1X<.N LXBXH ; -.K nXeX2.a ",
"KX=Xo.L E.-XmX-.8Xv.S.<Xg.gXFXS O.K.SXD.1XI.D gX=X{.V.ZX<XOX,Xm + @.).2XkXp.l.s 9XMXq q cXY.D [ e.j ^.9Xu.U -X0 ^.R.%XrXe.b J # ",
"0XB 2.CXXXqXD., &XK.fX>XA <.h.C.d.xXh._ }.' b.p.' 7.&.lXyXt.T.Q.g dX(.A.~ cXeXgXm.) Q 8 +XhXH VX X; U.8.&.:.yXp./ n.BXz.A >X] O ",
"<X} U.uX&Xg.*.A.=X9 4.!.] g.JXj.% } r.Z.9Xr.8X0.A s y.k.CX$.A.7.= } ~.W.}.cX%X4.d.).>.% mXU 5 /.;.e.xXtXa d.4XJ ^ j ..u.BXVXC 3 ",
"$X{ N.p.cXCX<X_ i.h hXmX] gX9XD W CXw.[ 2X+.@ -.: & e.lXQ.d m.:X% hXLX2X'.oXZ.; SX;X~.d.w N.@X9.s U 1.#XjXu.MXOX..b.,.>.D.'.:.x ",
"k.,.2.>X6.U d.f.U.E.*.9Xu.7 <.$.X.nX+.3 a <.P.} >.o B .XFXa.] >X- [.1.s.k._.}.* g._ m q.>X+X6 m.} j [..XsXu.#XHXZ.s =X#.K.KX0.5 ",
"%Xw.D m.J (.hXsX9Xm.A e.i._.JXy 4 ,.`.1.ZXy.* pX,.# y fXDX(.MX5 @ s.2XBXjXS.' a.P.7.0 y $X#.* t.0.* CXF R { ( g.1.x.*XY.7.[.% 1 ",
"/.5 7.2.6.z.J.2.oXK.gXFXU F.( # ; 7.H n XX| k Q 1.:.3 4.U.4 d.(.G dX$X X .'..X0.G A.} k H.J.<.VX[.S ^.1X4.xXE.kXj. X&X%XV X.w.N ",
"N ` s.$X9.B.g.4 MXC.S $X!.>.'.* + ^ 1. .w.*XZ.9.sX_ 6 H SXM.@.eXq ,.>.h.lXr.nX4.A fX+X7 SXb h c.f.{.$X2Xj.@X:X&X;.5 *._ bX.X^ X ",
"8.&.j e G SXj.: V s.' {.x.<X Xf % )...) `.h = &.<.u.oXaXH.~ R.eXf 5.KXyX&XH.B L.-Xr.,.d s.X.7 7.&Xo.,.@.5.| 2X=Xw.$X).^.G.V i.B ",
"N D.,XMX8X4 c.K x.3Xz.d.C A.` [ w gXK * 9 ^ + | 2.q.| r.tXS W.#X* *.T.P.3X,X,XXXM.J @Xw.XXr.6 wX8.R.eXOX2.u e.zXK.L.2Xo.s.NX+.m ",
"SXD y._.N.B.).4.9Xc.Z./.= 7._ y.= | j.` GX .f fX8.1 0 H AX,.cX8 $ Z c.r.gXO.R.#. .q...i.bX`.$ j.<.2.bXS 9 1.I ..oXe '  .h.cX< # ",
"*XV.j ] 5 O.b ) _ 3XkX` $ Q.u @ :.=Xk.O.'.u.m #.1.} A.$.: c T /.u.fX!., w.^.@.-.;XQ. .y 0 >.' aX4.F ..H.9.,.D fX} a.{ K.+.& W > ",
"p.`.1 ' r & &.O.k.m <.:.V | ' . q ,.;.* u 6.d g.hX} ' 0 ^ 0 ;.H., ;.s.S.) -Xr.r.B 3..Xk.=X .p.a w.I.*XQ.~ B.A.;.O.e Q e sXj O.X ",
"4.kXf $ O.B | 4 t C CX2.] kXl.+ 1 =X>X{ nXu C +Xp.q +.d #. .4.x + .X~ 8.#.2 5 s OXr.B.r a / O k.BXI.nXA.-.V J.Q.E 0 8 L.2.4 N @ ",
"F.g.@X&X].S ; s { P hXeXh _ M.+.1 MXy.l ] S.v.k.N XX| d k.c c }.K kX(. XM #.#X.X#Xd.y @X7.G.f /.) h.(.!.;.y.:XAXN.N fX%.H.KXW * ",
"e.V F.:X|.L.r.kXU & ] !.} `.BXR.* | rX ./.{ u.d.e.6X* p.>Xz.;.eX% g.e.z.i.:.;X,._ BX} B.ZXI.O ..g.h.}.T.0 ].u Q.#.t.a.V.^.nX7 : ",
" Xc o &.L +XeX .#X+.GX8.5 ,.z.J $XLX;X_ z.$ x *X:.[ 5.hX$ : D l.$ pX:X1.q b G.4..XCX( J T.e.f.FXr.3 _ !.-.NX9XgX} >XmXV.H.M.e.n.",
"u.C.1 9.D 8 ;XpXOXL.>.G.t ^ wXy.d.&XOX: ;.#.m.*Xz.OXI l.:X5 cXz.@ &.[ M q .XtXe.D ~.$.I.FXH a 9XJ.U.FXtXA.$.XX6.T K 5.w K KXh.x ",
"BX~.- c.E.G.9X9.eXm.lXSXC.6.yXx q ^.+XA.LXN.h jX:Xx.oXS.^.M SX*X* J.qXSX0.V.U.d.$XKXZ.I h.a.@ F.kXG.:.,XgXCXXX3X` eXI.h., ~.N.# ",
"d.N.z.@Xr.8 U.g.@XP =.0X+.+X#.) = cXU C Q.u.I._ ..I.[ u @.s L eX^ kXmXJ.R !.;X%XF.m.^ 3.}.;.# M.8.u v >X1.).tXkX_ L.xX-Xk.JXF.2 ",
"'.B G 1Xe.F.7.-.$X& M g.~ 7.*XN.f ..:XB.H.` s.E.'.qX+ V.;X#XI./.x { <.J.@.!.R.;.v.SX_ e CXw.v B y. .jX.X( ' .X] ) q &.J.R.XX5 1 ",
"$XA % z.%XtX.X:.T.x SX+Xg 5.n.h [ kX^ Z.XX9 C 9.k.M.:.gX* < ` L.@ ).BX=Xi u ! ;.J.cX~ i T.{ $.OXNXG Z.w kXXXeXhXE.W.e.$.#XW.B.b.",
"J ^.o CXdXC p.-.{.9X&X%.s y J.e / FXd.3 j.O._ rXF.'.t z.,XS.=XX.f  Xu.N.F.d.E.`.A.XXk.d.HX>XN A L.X.W.1XwX>XtXsXy p  .F G cXk.3 ",
"KXfXl b J K.6X>.R.C.G.!.x.9.(.S - V.J.g.GXp I gX8.>Xy F.*XG.VX5 $ C.P.mXkXa H.g ^.*XV , <X..M pXw.<.9.J eXSX1X; h.X.v Q 5 2.t o ",
"b.u.| 7._ ( f.a $.I.xXeXt.e.W.) 8 ~.m.5 Q.{ M.p.%.!.w.cXb.c a.oXu.jX1Xu...k.X.i l.T.~ [ CXZ.` tXbXd A ..g.j.,XmX( K.MXh.V.}.l.X ",
"CX@XB.eXT.F ,.dX9XH ( 1.s W .X_ , !.(.$ qXW.S.k.nXS.o b KXQ ).I.x 1.F.Z.;.yX1X=.j ;XS.y.UX_.* 5 r | NXXX, V K.=.m A n.) ^ {.w 6 ",
"2X9.u.y ].t  X:.E.K hXtXp.pXT.2 *.V.E f vXK D ^.u.u.} f.@.6 r.|.h ..0.*X&.D i.L K.SX;.h Z.3Xv.'.j.Z.pXD.4.<XtXs k.A.].V.1.D./ b.",
"I.g.A.p.aXx R.&X>XI -X-XL , m.F $.T.x $ W B.U :Xp.(.H F H.i *Xh.D w.u c j :XDXF m.P a.| 2X&Xe ~.[ w z.KX-X<XJX~.h k ..D /.JXk.z ",
"gX=.r A t #XZ.hXH.1  Xa.e 5.>XF $ 8 ) a mX` p gX].L.M 7.1.M bXr 2 ] :.z.X.d nX8 b q.a y XXI N / z.h.).h.] 9.R.+ ! x G.j.s 9.% r ",
"b.z.@.).I  X;XC.H.Z.NX>X> 1.] t.*.MXM 5 cXs s b.S.X.2 gXv.5 h.$.e W XXV a t.Q F.T.JXd @ '.| y MX5   c <.R.}.b.. q n.NX@XM $Xp.w ",
"T bX[ yXu.; h.cXD.l.^ n.2 c E.V A >XJ.& '.p.P.{.h.k.h r XXG =.9X; ! 0 9 &X>XSXdX3 2.H.D PX#X$ y.Q a VXuXe u R.O . . .Xh.D.mXR S ",
"E.) O. Xk.n ;XgXL.n.SXBXn.pX}.O 1.v.h.t HX5 k -.> * Q.Q G.9 lXrX@ Q ;X~ hXH d.] rX'.,.f +XE.M q t X %.` 5.].h.@ X B pXS.B.K ' N.",
"C.~ @.BXcXb R.>X%Xh <.l.A O.( D &.9X7 $ T.B.L.` l.Z.@.4 l.U *XI.7 jXT.( B Z.}.7 1X$X[ S.FX^.N T.o   2.SXI.oXu..   b <X#X>XU.d x ",
"8.dX- n.S.D.d.pXL.h y.i.q ..Q._ @ t t & VXs Z.6.z.;XV X.U.i hXb.$ p v.yXy.L.1.o 5 +Xd W r.<.5     . 4.Z.;.<.g.    Z ) C.`.].h o ",
"XXT.T U 6.>Xx.$.@XU NX3.* r.p.h Q MXv.: jXi V z.w a { gXp.H eX$Xi &.k.H.i < s +.I.1Xc g D.N y.m     S /.1.r.m.X . G.AXS.N.x.) Z.",
"$.0.p.tX*Xs i.l.1Xz.} z.u.^ ) O ! SXqX1 @X@.8X.Xh.!.D +.2XG =.+.& h.G u.<.Y.KX=.a D.j.r GX:X8 % .   gX2Xy L.n.    & `.j.F.X.) % ",
"g.5.D @Xw.h.<X:.5XT.^ wXT.cX1XO # b.Y.> VXw 9 nX,.Z.1 ^.;X+.CX5Xf _ .X#.fXJ ) s M.pXk.@ d N r u.X   CXZ.>. Xd.  o L.{.3.-XI.z a.",
"c V B.%.fXB K 1 { p 4.E.d q.G.a :.FXb.* %.V.i.a s  X> OXoX: oX+.g kXwXQ I OX5.1 d.9 ! O.BX] N v.1   5.tXmX5.Z   O B [.< I.1X( b ",
"*X4.D @XK.C.=.^ L.d.R _ - | qX%.$ ! Z.4 VXu.J aXN.eXm ~.;X5 ).R.@ G.B.@.=.;XG.2 v {.< ( _.#.# 1     aX}.C J V     m G S CXCX8 X ",
"R.#.Q u.5.Y.>Xo y.C.o.~.@ j.eXB E R.` : [.w F ..w 5 1 -.u.u y.$Xa 3.>Xi.^.T.7 !.V.tXi % B H y M     i.K.=Xs.#XX   9XVX!._ 5.d V.",
"(.J...G.}.M b o G L.0 O.$ @ i.+ ' eXI.O p F z.@Xe.n.u >.Y.a._ ) * cXm.v ;.#X6.pXp L.;.D PXl.8 7     zXrX[ s g.X . S &Xx.[.O.k.& ",
"ZX-.h b.$.p.3   K Z.[ J.M jX,X. D [.p.y NXr c gX$X0 & e.m.k.SX2 @ g H.K.=.H G %.uXgX*.h (.( 2 N O   &X(.2 m 8 X + C =X@X`.x x m ",
"L.N.p.B.9.s.t   o V.gX>X; #.u o 2 CXo.7 *Xt B.: u .X6 4.A 7 t +.u >.x./.H O.=X=XeXA < D.yXs.r qX1   ;.2XG S n.+   z :.W K 0 w t.",
"&X*./ 2XOXd.X   r N.u.L.B ^.;XV.# F.C.e (.B.L gX=XXXm -.tX;X#X X8 F N.F 4.eX|.;.K GXG._ DX% . 1     _.;X6 O ;     z f.P MX-.l . ",
"/.W ; V { R.X   2 D.3.^.S 6.G.5 -.K.h.N hX% 3 (.| u 4 -.) ..@X@X= 4.$Xo 4.a ) z.>X2Xg.S Z N X a.    u u.s a n   . 9 mX*.Y h.V i.",
"o V ~ #XgX1 X   1 C./ O.g 3 b.  E eXI.0 a._ C.n.N.:XT ;.E.: %XZ.$ `.f.0 [.R.fX5.u .Xy./ :Xr   V     jX1X% 6 #     x 8.s.}.H.O.% "
};
